mtllib model_67.mtl
o model_67
v 628.0867919921875 570 -228.7151641845703 
v 648.08642578125 570 -228.7151641845703 
v 628.0867919921875 570 -1818.71533203125 
v 648.08642578125 570 -1818.71533203125 
v 653.0863647460938 570.000244140625 -1900.7198486328125 
v 233.08700561523438 570.000244140625 -1900.7198486328125 
v 653.0863647460938 570.000244140625 -1851.087158203125 
v 233.08700561523438 570.000244140625 -1851.087158203125 
v 448.1135559082031 570.000244140625 -1305.969482421875 
v 258.11871337890625 570.000244140625 -1305.969482421875 
v 448.1135559082031 570.000244140625 -1295.874755859375 
v 258.11871337890625 570.000244140625 -1295.874755859375 
v 258.11871337890625 570.000244140625 -1075.4722900390625 
v 438.059814453125 570.000244140625 -1075.4722900390625 
v 258.11871337890625 570.000244140625 -1085.5670166015625 
v 438.059814453125 570.000244140625 -1085.5670166015625 
v 628.0546264648438 -30 -830.6740112304688 
v 628.0546264648438 -30 -850.8635864257812 
v 628.0546264648438 269.85357666015625 -830.6740112304688 
v 628.0546264648438 269.85357666015625 -850.863525390625 
v 628.2598266601562 300.0440979003906 -1640.779541015625 
v 628.2598266601562 300.0440979003906 -1295.874755859375 
v 628.2598266601562 270.1466979980469 -1640.779541015625 
v 628.2598266601562 270.1466979980469 -1295.874755859375 
v 258.11871337890625 570.000244140625 -1819.120361328125 
v 238.01126098632812 570.000244140625 -1819.120361328125 
v 258.11871337890625 570.000244140625 -260.3194580078125 
v 238.01126098632812 570.000244140625 -260.3194580078125 
v 628.0546264648438 570.000244140625 -860.9583740234375 
v 628.0546264648438 570.000244140625 -850.863525390625 
v 628.0546264648438 300.0440979003906 -860.9583740234375 
v 628.0546264648438 300.0440979003906 -850.863525390625 
v 263.2481689453125 570.000244140625 -260.3194580078125 
v 263.2481689453125 570.000244140625 -228.3526611328125 
v 233.08700561523438 570.000244140625 -260.3194580078125 
v 233.08700561523438 570.000244140625 -228.3526611328125 
v 233.08700561523438 570.000244140625 -178.719970703125 
v 648.162109375 570.000244140625 -178.719970703125 
v 648.162109375 570.000244140625 -228.3526611328125 
v 258.11871337890625 570.000244140625 -350.33111572265625 
v 378.1478576660156 570.000244140625 -350.33111572265625 
v 258.11871337890625 570.000244140625 -370.52069091796875 
v 378.1478576660156 570.000244140625 -370.52069091796875 
v 653.0863647460938 570.000244140625 -1819.120361328125 
v 648.162109375 570.000244140625 -1819.120361328125 
v 623.13037109375 570.000244140625 -1819.120361328125 
v 653.0863647460938 -30 -1900.7198486328125 
v 653.0863647460938 570.000244140625 -1900.7198486328125 
v 653.0863647460938 -30 -1851.087158203125 
v 653.0863647460938 570.000244140625 -1851.087158203125 
v 653.0863647460938 570.000244140625 -1819.120361328125 
v 438.059814453125 570.000244140625 -1295.874755859375 
v 448.1135559082031 570.000244140625 -860.9583740234375 
v 438.059814453125 570.000244140625 -860.9583740234375 
v 233.08700561523438 570.000244140625 -1819.120361328125 
v 263.0429992675781 570.000244140625 -1851.087158203125 
v 258.11871337890625 570.000244140625 -850.863525390625 
v 628.0546264648438 570.000244140625 -850.863525390625 
v 258.11871337890625 570.000244140625 -860.9583740234375 
v 628.0546264648438 570.000244140625 -860.9583740234375 
v 623.13037109375 570.000244140625 -1851.087158203125 
v 263.0429992675781 570.000244140625 -1819.120361328125 
v 653.0863647460938 -30 -1819.120361328125 
v 648.162109375 270.1466979980469 -178.719970703125 
v 648.162109375 570.000244140625 -228.3526611328125 
v 648.162109375 570.000244140625 -178.719970703125 
v 648.162109375 570.000244140625 -228.3526611328125 
v 648.162109375 270.1466979980469 -178.719970703125 
v 648.162109375 270.1466979980469 -228.3526611328125 
v 628.0546264648438 270.1466979980469 -1014.0623779296875 
v 628.2598266601562 300.0440979003906 -228.3526611328125 
v 628.2598266601562 270.1466979980469 -228.3526611328125 
v 628.2598266601562 300.0440979003906 -228.3526611328125 
v 628.0546264648438 270.1466979980469 -1014.0623779296875 
v 628.0546264648438 300.0440979003906 -1014.0623779296875 
v 628.0546264648438 -30 -1851.087158203125 
v 628.0546264648438 -0.10260009765625 -848.3399047851562 
v 628.0546264648438 -30 -848.3399047851562 
v 628.0546264648438 -0.10260009765625 -848.3399047851562 
v 628.0546264648438 -30 -1851.087158203125 
v 628.0546264648438 -0.10260009765625 -1851.087158203125 
vn 0 1 2.2204500197172533e-16 
vn 0 1 2.2204500197172533e-16 
vn 0 1 2.2204500197172533e-16 
vn 0 1 2.2204500197172533e-16 
vn 0 1 2.2204500197172533e-16 
vn 0 1 2.2204500197172533e-16 
vn 0 1 2.2204500197172533e-16 
vn 0 1 2.2204500197172533e-16 
vn 0 1 2.2204500197172533e-16 
vn 0 1 2.2204500197172533e-16 
vn 0 1 2.2204500197172533e-16 
vn 0 1 2.2204500197172533e-16 
vn 0 1 2.2204500197172533e-16 
vn 0 1 2.2204500197172533e-16 
vn 0 1 2.2204500197172533e-16 
vn 0 1 2.2204500197172533e-16 
vn 0.999997615814209 0.002184694167226553 4.851004321232411e-19 
vn 0.999997615814209 0.002184694167226553 4.851004321232411e-19 
vn 0.999997615814209 0.002184694167226553 4.851004321232411e-19 
vn 0.999997615814209 0.002184694167226553 4.851004321232411e-19 
vn 0.999997615814209 0.002184694167226553 4.851004321232411e-19 
vn 0.999997615814209 0.002184694167226553 4.851004321232411e-19 
vn 0.999997615814209 0.002184694167226553 4.851004321232411e-19 
vn 0.999997615814209 0.002184694167226553 4.851004321232411e-19 
vn 0 1 2.2204500197172533e-16 
vn 0 1 2.2204500197172533e-16 
vn 0 1 2.2204500197172533e-16 
vn 0 1 2.2204500197172533e-16 
vn 0.999997615814209 0.002184694167226553 4.851004321232411e-19 
vn 0.999997615814209 0.002184694167226553 4.851004321232411e-19 
vn 0.999997615814209 0.002184694167226553 4.851004321232411e-19 
vn 0.999997615814209 0.002184694167226553 4.851004321232411e-19 
vn 0 1 2.2204500197172533e-16 
vn 0 1 2.2204500197172533e-16 
vn 0 1 2.2204500197172533e-16 
vn 0 1 2.2204500197172533e-16 
vn 0 1 2.2204500197172533e-16 
vn 0 1 2.2204500197172533e-16 
vn 0 1 2.2204500197172533e-16 
vn 0 1 2.2204500197172533e-16 
vn 0 1 2.2204500197172533e-16 
vn 0 1 2.2204500197172533e-16 
vn 0 1 2.2204500197172533e-16 
vn 0 1 2.2204500197172533e-16 
vn 0 1 2.2204500197172533e-16 
vn 0 1 2.2204500197172533e-16 
vn 0.999997615814209 0.002184694167226553 4.851004321232411e-19 
vn 0.999997615814209 0.002184694167226553 4.851004321232411e-19 
vn 0.999997615814209 0.002184694167226553 4.851004321232411e-19 
vn 0.999997615814209 0.002184694167226553 4.851004321232411e-19 
vn 0.999997615814209 0.002184694167226553 4.851004321232411e-19 
vn 0 1 2.2204500197172533e-16 
vn 0 1 2.2204500197172533e-16 
vn 0 1 2.2204500197172533e-16 
vn 0 1 2.2204500197172533e-16 
vn 0 1 2.2204500197172533e-16 
vn 0 1 2.2204500197172533e-16 
vn 0 1 2.2204500197172533e-16 
vn 0 1 2.2204500197172533e-16 
vn 0 1 2.2204500197172533e-16 
vn 0 1 2.2204500197172533e-16 
vn 0 1 2.2204500197172533e-16 
vn 0.999997615814209 0.002184694167226553 4.851004321232411e-19 
vn 0.999997615814209 0.002184694167226553 4.851004321232411e-19 
vn 0.999997615814209 0.002184694167226553 4.851004321232411e-19 
vn 0.999997615814209 0.002184694167226553 4.851004321232411e-19 
vn 0.999997615814209 0.002184694167226553 4.851004321232411e-19 
vn 0.999997615814209 0.002184694167226553 4.851004321232411e-19 
vn 0.999997615814209 0.002184694167226553 4.851004321232411e-19 
vn 0.999997615814209 0.002184694167226553 4.851004321232411e-19 
vn 0.999997615814209 0.002184694167226553 4.851004321232411e-19 
vn 0.999997615814209 0.002184694167226553 4.851004321232411e-19 
vn 0.999997615814209 0.002184694167226553 4.851004321232411e-19 
vn 0.999997615814209 0.002184694167226553 4.851004321232411e-19 
vn 0.999997615814209 0.002184694167226553 4.851004321232411e-19 
vn 0.999997615814209 0.002184694167226553 4.851004321232411e-19 
vn 0.999997615814209 0.002184694167226553 4.851004321232411e-19 
vn 0.999997615814209 0.002184694167226553 4.851004321232411e-19 
vn 0.999997615814209 0.002184694167226553 4.851004321232411e-19 
vn 0.999997615814209 0.002184694167226553 4.851004321232411e-19 
vn 0.999997615814209 0.002184694167226553 4.851004321232411e-19 
s on 
f 1//1 2//2 3//3 
f 2//2 4//4 3//3 
f 3//3 4//4 4//4 
f 4//4 5//5 4//4 
f 4//4 5//5 5//5 
f 5//5 6//6 5//5 
f 5//5 6//6 7//7 
f 6//6 8//8 7//7 
f 7//7 8//8 8//8 
f 8//8 9//9 8//8 
f 8//8 9//9 9//9 
f 9//9 10//10 9//9 
f 9//9 10//10 11//11 
f 10//10 12//12 11//11 
f 11//11 12//12 12//12 
f 12//12 13//13 12//12 
f 12//12 13//13 13//13 
f 13//13 14//14 13//13 
f 13//13 14//14 15//15 
f 14//14 16//16 15//15 
f 15//15 16//16 16//16 
f 16//16 17//17 16//16 
f 16//16 17//17 17//17 
f 17//17 18//18 17//17 
f 17//17 18//18 19//19 
f 18//18 20//20 19//19 
f 19//19 20//20 20//20 
f 20//20 21//21 20//20 
f 20//20 21//21 21//21 
f 21//21 22//22 21//21 
f 21//21 22//22 23//23 
f 22//22 24//24 23//23 
f 23//23 24//24 24//24 
f 24//24 25//25 24//24 
f 24//24 25//25 25//25 
f 25//25 26//26 25//25 
f 25//25 26//26 27//27 
f 26//26 28//28 27//27 
f 27//27 28//28 28//28 
f 28//28 29//29 28//28 
f 28//28 29//29 29//29 
f 29//29 30//30 29//29 
f 29//29 30//30 31//31 
f 30//30 32//32 31//31 
f 31//31 32//32 32//32 
f 32//32 33//33 32//32 
f 32//32 33//33 33//33 
f 33//33 28//28 33//33 
f 33//33 28//28 34//34 
f 28//28 35//35 34//34 
f 34//34 35//35 36//36 
f 35//35 36//36 36//36 
f 36//36 36//36 37//37 
f 36//36 37//37 37//37 
f 37//37 37//37 37//37 
f 37//37 38//38 37//37 
f 37//37 38//38 36//36 
f 38//38 39//39 36//36 
f 36//36 39//39 39//39 
f 39//39 40//40 39//39 
f 39//39 40//40 40//40 
f 40//40 41//41 40//40 
f 40//40 41//41 42//42 
f 41//41 43//43 42//42 
f 42//42 43//43 43//43 
f 43//43 44//44 43//43 
f 43//43 44//44 44//44 
f 44//44 7//7 44//44 
f 44//44 7//7 45//45 
f 7//7 46//46 45//45 
f 45//45 46//46 46//46 
f 46//46 47//47 46//46 
f 46//46 47//47 47//47 
f 47//47 48//48 47//47 
f 47//47 48//48 49//49 
f 48//48 50//50 49//49 
f 49//49 50//50 51//51 
f 50//50 51//51 51//51 
f 51//51 51//51 11//11 
f 51//51 11//11 11//11 
f 11//11 11//11 11//11 
f 11//11 52//52 11//11 
f 11//11 52//52 53//53 
f 52//52 54//54 53//53 
f 53//53 54//54 54//54 
f 54//54 55//55 54//54 
f 54//54 55//55 55//55 
f 55//55 26//26 55//55 
f 55//55 26//26 8//8 
f 26//26 56//56 8//8 
f 8//8 56//56 56//56 
f 56//56 57//57 56//56 
f 56//56 57//57 57//57 
f 57//57 58//58 57//57 
f 57//57 58//58 59//59 
f 58//58 60//60 59//59 
f 46//46 7//7 61//61 
f 56//56 26//26 62//62 
f 49//49 51//51 63//63 
f 64//64 65//65 66//66 
f 67//67 68//68 69//69 
f 70//70 71//71 72//72 
f 73//73 74//74 75//75 
f 76//76 77//77 78//78 
f 79//79 80//80 81//81 

