mtllib model_73.mtl
o model_73
v 448.1593933105469 300 -1024.1854248046875 
v 448.1593933105469 300 -1152.93896484375 
v 448.1593933105469 520 -1024.1854248046875 
v 448.1593933105469 520 -1152.93896484375 
v 438.159423828125 300 -1295.747314453125 
v 438.159423828125 300 -1232.93896484375 
v 438.159423828125 570 -1295.747314453125 
v 438.159423828125 520 -1232.93896484375 
v 438.159423828125 520 -1152.93896484375 
v 438.159423828125 300 -1152.93896484375 
v 438.15936279296875 300 -1024.1854248046875 
v 438.159423828125 520 -1152.93896484375 
v 438.15936279296875 520 -1024.1854248046875 
v 628.0867919921875 570 -860.7525024414062 
v 628.0867919921875 300 -860.7525024414062 
v 567.765869140625 520 -860.7525024414062 
v 567.765869140625 300 -860.7525024414062 
v 448.1593322753906 520 -944.1854248046875 
v 448.1593322753906 570 -860.7525634765625 
v 448.1593322753906 300 -944.1854248046875 
v 448.1593322753906 300 -860.7525634765625 
v 448.159423828125 300 -1232.93896484375 
v 448.159423828125 300 -1295.747314453125 
v 448.159423828125 520 -1232.93896484375 
v 448.159423828125 570 -1295.747314453125 
v 438.1593322753906 570 -860.7525634765625 
v 438.1593322753906 520 -944.1854248046875 
v 438.1593322753906 300 -860.7525634765625 
v 438.1593322753906 300 -944.1854248046875 
v 487.765869140625 520 -860.7525634765625 
v 487.765869140625 300 -860.7525634765625 
v 258.086669921875 570 -860.7526245117188 
v 258.086669921875 300 -860.7526245117188 
v 448.1593322753906 570 -860.7525634765625 
v 448.1593322753906 520 -944.1854248046875 
v 448.159423828125 570 -1295.747314453125 
v 448.159423828125 570 -1295.747314453125 
v 448.1593322753906 520 -944.1854248046875 
v 448.1593933105469 520 -1024.1854248046875 
v 448.159423828125 570 -1295.747314453125 
v 448.1593933105469 520 -1024.1854248046875 
v 448.1593933105469 520 -1152.93896484375 
v 448.159423828125 570 -1295.747314453125 
v 448.1593933105469 520 -1152.93896484375 
v 448.159423828125 520 -1232.93896484375 
v 487.765869140625 520 -860.7525634765625 
v 258.086669921875 570 -860.7526245117188 
v 567.765869140625 520 -860.7525024414062 
v 628.0867919921875 570 -860.7525024414062 
v 567.765869140625 520 -860.7525024414062 
v 258.086669921875 570 -860.7526245117188 
v 438.1593322753906 520 -944.1854248046875 
v 438.1593322753906 570 -860.7525634765625 
v 438.159423828125 570 -1295.747314453125 
v 438.1593322753906 520 -944.1854248046875 
v 438.159423828125 570 -1295.747314453125 
v 438.15936279296875 520 -1024.1854248046875 
v 438.15936279296875 520 -1024.1854248046875 
v 438.159423828125 570 -1295.747314453125 
v 438.159423828125 520 -1152.93896484375 
vn 0.999997615814209 0.002184694167226553 4.851004321232411e-19 
vn 0.999997615814209 0.002184694167226553 4.851004321232411e-19 
vn 0.999997615814209 0.002184694167226553 4.851004321232411e-19 
vn 0.999997615814209 0.002184694167226553 4.851004321232411e-19 
vn -0.999997615814209 0.002184694167226553 2.0682309760221979e-13 
vn -0.999997615814209 0.002184694167226553 2.0682309760221979e-13 
vn -0.999997615814209 0.002184694167226553 2.0682309760221979e-13 
vn -0.999997615814209 0.002184694167226553 2.0682309760221979e-13 
vn -0.999997615814209 0.002184694167226553 2.0682309760221979e-13 
vn -0.999997615814209 0.002184694167226553 2.0682309760221979e-13 
vn -0.999997615814209 0.002184694167226553 2.0682309760221979e-13 
vn -0.999997615814209 0.002184694167226553 2.0682309760221979e-13 
vn -0.999997615814209 0.002184694167226553 2.0682309760221979e-13 
vn -1.0341130485562108e-13 0.002184694167226553 -0.999997615814209 
vn -1.0341130485562108e-13 0.002184694167226553 -0.999997615814209 
vn -1.0341130485562108e-13 0.002184694167226553 -0.999997615814209 
vn -1.0341130485562108e-13 0.002184694167226553 -0.999997615814209 
vn 0.999997615814209 0.002184694167226553 4.851004321232411e-19 
vn 0.999997615814209 0.002184694167226553 4.851004321232411e-19 
vn 0.999997615814209 0.002184694167226553 4.851004321232411e-19 
vn 0.999997615814209 0.002184694167226553 4.851004321232411e-19 
vn 0.999997615814209 0.002184694167226553 4.851004321232411e-19 
vn 0.999997615814209 0.002184694167226553 4.851004321232411e-19 
vn 0.999997615814209 0.002184694167226553 4.851004321232411e-19 
vn 0.999997615814209 0.002184694167226553 4.851004321232411e-19 
vn -0.999997615814209 0.002184694167226553 2.0682309760221979e-13 
vn -0.999997615814209 0.002184694167226553 2.0682309760221979e-13 
vn -0.999997615814209 0.002184694167226553 2.0682309760221979e-13 
vn -0.999997615814209 0.002184694167226553 2.0682309760221979e-13 
vn -1.0341130485562108e-13 0.002184694167226553 -0.999997615814209 
vn -1.0341130485562108e-13 0.002184694167226553 -0.999997615814209 
vn -1.0341130485562108e-13 0.002184694167226553 -0.999997615814209 
vn -1.0341130485562108e-13 0.002184694167226553 -0.999997615814209 
vn 0.999997615814209 -0.002184694167226553 -4.851004321232411e-19 
vn 0.999997615814209 -0.002184694167226553 -4.851004321232411e-19 
vn 0.999997615814209 -0.002184694167226553 -4.851004321232411e-19 
vn 0.999997615814209 0.002184694167226553 4.851004321232411e-19 
vn 0.999997615814209 0.002184694167226553 4.851004321232411e-19 
vn 0.999997615814209 0.002184694167226553 4.851004321232411e-19 
vn 0.999997615814209 -0.002184694167226553 -4.851004321232411e-19 
vn 0.999997615814209 -0.002184694167226553 -4.851004321232411e-19 
vn 0.999997615814209 -0.002184694167226553 -4.851004321232411e-19 
vn 0.999997615814209 0.002184694167226553 4.851004321232411e-19 
vn 0.999997615814209 0.002184694167226553 4.851004321232411e-19 
vn 0.999997615814209 0.002184694167226553 4.851004321232411e-19 
vn -1.0341130485562108e-13 0.002184694167226553 -0.999997615814209 
vn -1.0341130485562108e-13 0.002184694167226553 -0.999997615814209 
vn -1.0341130485562108e-13 0.002184694167226553 -0.999997615814209 
vn -1.0341130485562108e-13 -0.002184694167226553 -0.999997615814209 
vn -1.0341130485562108e-13 -0.002184694167226553 -0.999997615814209 
vn -1.0341130485562108e-13 -0.002184694167226553 -0.999997615814209 
vn -0.999997615814209 0.002184694167226553 2.0682309760221979e-13 
vn -0.999997615814209 0.002184694167226553 2.0682309760221979e-13 
vn -0.999997615814209 0.002184694167226553 2.0682309760221979e-13 
vn -0.999997615814209 -0.002184694167226553 2.0682212182026455e-13 
vn -0.999997615814209 -0.002184694167226553 2.0682212182026455e-13 
vn -0.999997615814209 -0.002184694167226553 2.0682212182026455e-13 
vn -0.999997615814209 -0.002184694167226553 2.0682212182026455e-13 
vn -0.999997615814209 -0.002184694167226553 2.0682212182026455e-13 
vn -0.999997615814209 -0.002184694167226553 2.0682212182026455e-13 
vt 0.3336370289325714 0.6742048859596252 
vt 0.18013377487659454 0.6742048859596252 
vt 0.3336370289325714 0.4120422303676605 
vt 0.18013377487659454 0.4120422303676605 
vt 0.5284174680709839 0.33176353573799133 
vt 0.4535202980041504 0.33176353573799133 
vt 0.5284174680709839 0.009999999776482582 
vt 0.4535202980041504 0.06960085779428482 
vt 0.3581640422344208 0.06960085779428482 
vt 0.3581640422344208 0.33176353573799133 
vt 0.2047804296016693 0.33176353573799133 
vt 0.3581640422344208 0.06960085779428482 
vt 0.2047804296016693 0.06960085779428482 
vt 0.9900040030479431 0.009999999776482582 
vt 0.9900040030479431 0.33176353573799133 
vt 0.918097972869873 0.06960085779428482 
vt 0.918097972869873 0.33176353573799133 
vt 0.428993284702301 0.4120422303676605 
vt 0.5284174680709839 0.35244137048721313 
vt 0.428993284702301 0.6742048859596252 
vt 0.5284174680709839 0.6742048859596252 
vt 0.08489714562892914 0.6742048859596252 
vt 0.009999999776482582 0.6742048859596252 
vt 0.08489714562892914 0.4120422303676605 
vt 0.009999999776482582 0.35244137048721313 
vt 0.009999999776482582 0.009999999776482582 
vt 0.1094241663813591 0.06960085779428482 
vt 0.009999999776482582 0.33176353573799133 
vt 0.1094241663813591 0.33176353573799133 
vt 0.822741687297821 0.06960085779428482 
vt 0.822741687297821 0.33176353573799133 
vt 0.5491158366203308 0.009999999776482582 
vt 0.5491158366203308 0.33176353573799133 
vt 0.5284174680709839 0.35244137048721313 
vt 0.428993284702301 0.4120422303676605 
vt 0.009999999776482582 0.35244137048721313 
vt 0.009999999776482582 0.35244137048721313 
vt 0.428993284702301 0.4120422303676605 
vt 0.3336370289325714 0.4120422303676605 
vt 0.009999999776482582 0.35244137048721313 
vt 0.3336370289325714 0.4120422303676605 
vt 0.18013377487659454 0.4120422303676605 
vt 0.009999999776482582 0.35244137048721313 
vt 0.18013377487659454 0.4120422303676605 
vt 0.08489714562892914 0.4120422303676605 
vt 0.822741687297821 0.06960085779428482 
vt 0.5491158366203308 0.009999999776482582 
vt 0.918097972869873 0.06960085779428482 
vt 0.9900040030479431 0.009999999776482582 
vt 0.918097972869873 0.06960085779428482 
vt 0.5491158366203308 0.009999999776482582 
vt 0.1094241663813591 0.06960085779428482 
vt 0.009999999776482582 0.009999999776482582 
vt 0.5284174680709839 0.009999999776482582 
vt 0.1094241663813591 0.06960085779428482 
vt 0.5284174680709839 0.009999999776482582 
vt 0.2047804296016693 0.06960085779428482 
vt 0.2047804296016693 0.06960085779428482 
vt 0.5284174680709839 0.009999999776482582 
vt 0.3581640422344208 0.06960085779428482 
s on 
f 1/1/1 2/2/2 3/3/3 
f 2/2/2 4/4/4 3/3/3 
f 3/3/3 4/4/4 4/4/4 
f 4/4/4 5/5/5 4/4/4 
f 4/4/4 5/5/5 5/5/5 
f 5/5/5 6/6/6 5/5/5 
f 5/5/5 6/6/6 7/7/7 
f 6/6/6 8/8/8 7/7/7 
f 7/7/7 8/8/8 9/9/9 
f 8/8/8 9/9/9 9/9/9 
f 9/9/9 9/9/9 10/10/10 
f 9/9/9 10/10/10 10/10/10 
f 10/10/10 10/10/10 10/10/10 
f 10/10/10 11/11/11 10/10/10 
f 10/10/10 11/11/11 12/12/12 
f 11/11/11 13/13/13 12/12/12 
f 12/12/12 13/13/13 13/13/13 
f 13/13/13 14/14/14 13/13/13 
f 13/13/13 14/14/14 14/14/14 
f 14/14/14 15/15/15 14/14/14 
f 14/14/14 15/15/15 16/16/16 
f 15/15/15 17/17/17 16/16/16 
f 16/16/16 17/17/17 17/17/17 
f 17/17/17 18/18/18 17/17/17 
f 17/17/17 18/18/18 18/18/18 
f 18/18/18 19/19/19 18/18/18 
f 18/18/18 19/19/19 20/20/20 
f 19/19/19 21/21/21 20/20/20 
f 20/20/20 21/21/21 21/21/21 
f 21/21/21 22/22/22 21/21/21 
f 21/21/21 22/22/22 22/22/22 
f 22/22/22 23/23/23 22/22/22 
f 22/22/22 23/23/23 24/24/24 
f 23/23/23 25/25/25 24/24/24 
f 24/24/24 25/25/25 25/25/25 
f 25/25/25 26/26/26 25/25/25 
f 25/25/25 26/26/26 26/26/26 
f 26/26/26 27/27/27 26/26/26 
f 26/26/26 27/27/27 28/28/28 
f 27/27/27 29/29/29 28/28/28 
f 28/28/28 29/29/29 29/29/29 
f 29/29/29 30/30/30 29/29/29 
f 29/29/29 30/30/30 30/30/30 
f 30/30/30 31/31/31 30/30/30 
f 30/30/30 31/31/31 32/32/32 
f 31/31/31 33/33/33 32/32/32 
f 34/34/34 35/35/35 36/36/36 
f 37/37/37 38/38/38 39/39/39 
f 40/40/40 41/41/41 42/42/42 
f 43/43/43 44/44/44 45/45/45 
f 46/46/46 47/47/47 48/48/48 
f 49/49/49 50/50/50 51/51/51 
f 52/52/52 53/53/53 54/54/54 
f 55/55/55 56/56/56 57/57/57 
f 58/58/58 59/59/59 60/60/60 

