mtllib model_3.mtl
o model_3
v 258.0868225097656 270 -1640.71533203125 
v 258.0868225097656 300 -1640.71533203125 
v 628.1597290039062 270 -1640.7152099609375 
v 628.1597290039062 300 -1640.7152099609375 
v 628.0867919921875 270 -1013.7573852539062 
v 628.1595458984375 270 -228.7151641845703 
v 527.0617065429688 270 -1013.7573852539062 
v 258.0868225097656 270 -1640.71533203125 
v 527.1338500976562 270 -1295.747314453125 
v 628.1597290039062 270 -1640.7152099609375 
v 628.1597290039062 270 -1295.747314453125 
v 527.0617065429688 270 -1013.7573852539062 
v 527.1338500976562 270 -1295.747314453125 
v 527.0617065429688 300 -1013.7573852539062 
v 527.1338500976562 300 -1295.747314453125 
v 527.1338500976562 300 -1295.747314453125 
v 527.1338500976562 270 -1295.747314453125 
v 628.1597290039062 300 -1295.747314453125 
v 628.1597290039062 270 -1295.747314453125 
v 527.0617065429688 270 -1013.7573852539062 
v 527.0617065429688 300 -1013.7573852539062 
v 628.0867919921875 270 -1013.7573852539062 
v 628.0867919921875 300 -1013.7573852539062 
v 258.0865783691406 270 -228.71524047851562 
vn -1.0341130485562108e-13 0.002184694167226553 -0.999997615814209 
vn -1.0341130485562108e-13 0.002184694167226553 -0.999997615814209 
vn -1.0341130485562108e-13 0.002184694167226553 -0.999997615814209 
vn -1.0341130485562108e-13 0.002184694167226553 -0.999997615814209 
vn -2.0682311115474694e-13 -1 -2.2204500197172533e-16 
vn -2.0682311115474694e-13 -1 -2.2204500197172533e-16 
vn -2.0682311115474694e-13 -1 -2.2204500197172533e-16 
vn -2.0682311115474694e-13 -1 -2.2204500197172533e-16 
vn -2.0682311115474694e-13 -1 -2.2204500197172533e-16 
vn -2.0682311115474694e-13 -1 -2.2204500197172533e-16 
vn -2.0682311115474694e-13 -1 -2.2204500197172533e-16 
vn 0.999997615814209 0.002184694167226553 4.851004321232411e-19 
vn 0.999997615814209 0.002184694167226553 4.851004321232411e-19 
vn 0.999997615814209 0.002184694167226553 4.851004321232411e-19 
vn 0.999997615814209 0.002184694167226553 4.851004321232411e-19 
vn 3.097898456858039e-13 0.002184694167226553 0.999997615814209 
vn 3.097898456858039e-13 0.002184694167226553 0.999997615814209 
vn 3.097898456858039e-13 0.002184694167226553 0.999997615814209 
vn 3.097898456858039e-13 0.002184694167226553 0.999997615814209 
vn -1.0341130485562108e-13 0.002184694167226553 -0.999997615814209 
vn -1.0341130485562108e-13 0.002184694167226553 -0.999997615814209 
vn -1.0341130485562108e-13 0.002184694167226553 -0.999997615814209 
vn -1.0341130485562108e-13 0.002184694167226553 -0.999997615814209 
vn -2.0682311115474694e-13 -1 -2.2204500197172533e-16 
vt 0.009999999776482582 0.30824363231658936 
vt 0.009999999776482582 0.2874253988265991 
vt 0.26687565445899963 0.30824363231658936 
vt 0.26687565445899963 0.2874253988265991 
vt 0.44514521956443787 0.010045257396996021 
vt 0.9900040030479431 0.009999999776482582 
vt 0.44514521956443787 0.08014834672212601 
vt 0.009999999776482582 0.26683348417282104 
vt 0.24940764904022217 0.08010309189558029 
vt 0.009999999776482582 0.009999999776482582 
vt 0.24940764904022217 0.009999999776482582 
vt 0.20573759078979492 0.3444492220878601 
vt 0.009999999776482582 0.3444492220878601 
vt 0.20573759078979492 0.32363101840019226 
vt 0.009999999776482582 0.32363101840019226 
vt 0.3524211347103119 0.2874253988265991 
vt 0.3524211347103119 0.30824363231658936 
vt 0.28230974078178406 0.2874253988265991 
vt 0.28230974078178406 0.30824363231658936 
vt 0.009999999776482582 0.38070008158683777 
vt 0.009999999776482582 0.3598818778991699 
vt 0.08011138439178467 0.38070008158683777 
vt 0.08011138439178467 0.3598818778991699 
vt 0.9900040030479431 0.26683348417282104 
s on 
f 1/1/1 2/2/2 3/3/3 
f 2/2/2 4/4/4 3/3/3 
f 3/3/3 4/4/4 4/4/4 
f 4/4/4 5/5/5 4/4/4 
f 4/4/4 5/5/5 5/5/5 
f 5/5/5 6/6/6 5/5/5 
f 5/5/5 6/6/6 7/7/7 
f 6/6/6 8/8/8 7/7/7 
f 7/7/7 8/8/8 9/9/9 
f 8/8/8 10/10/10 9/9/9 
f 9/9/9 10/10/10 11/11/11 
f 10/10/10 11/11/11 11/11/11 
f 11/11/11 11/11/11 12/12/12 
f 11/11/11 12/12/12 12/12/12 
f 12/12/12 12/12/12 12/12/12 
f 12/12/12 13/13/13 12/12/12 
f 12/12/12 13/13/13 14/14/14 
f 13/13/13 15/15/15 14/14/14 
f 14/14/14 15/15/15 15/15/15 
f 15/15/15 16/16/16 15/15/15 
f 15/15/15 16/16/16 16/16/16 
f 16/16/16 17/17/17 16/16/16 
f 16/16/16 17/17/17 18/18/18 
f 17/17/17 19/19/19 18/18/18 
f 18/18/18 19/19/19 19/19/19 
f 19/19/19 20/20/20 19/19/19 
f 19/19/19 20/20/20 20/20/20 
f 20/20/20 21/21/21 20/20/20 
f 20/20/20 21/21/21 22/22/22 
f 21/21/21 23/23/23 22/22/22 
f 8/8/8 6/6/6 24/24/24 

