mtllib model_48.mtl
o model_48
v 259.4682312011719 300.95068359375 -1241.7421875 
v 259.4682312011719 568.9500732421875 -1241.7421875 
v 349.4740295410156 300.95068359375 -1241.7421875 
v 349.4740295410156 568.9500732421875 -1241.7421875 
v 349.4740295410156 300.95068359375 -1238.7152099609375 
v 349.4740295410156 300.95068359375 -1241.7421875 
v 349.4740295410156 568.9500732421875 -1238.7152099609375 
v 349.4740295410156 568.9500732421875 -1241.7421875 
v 348.2273864746094 568.9500732421875 -1242.2265625 
v 438.2331237792969 568.9500732421875 -1242.2265625 
v 348.2273864746094 568.9500732421875 -1245.2535400390625 
v 438.2331237792969 568.9500732421875 -1245.253662109375 
v 348.72607421875 568.9500732421875 -1140.0653076171875 
v 258.7203369140625 568.9500732421875 -1140.0653076171875 
v 348.72607421875 568.9500732421875 -1137.038330078125 
v 258.7203369140625 568.9500732421875 -1137.038330078125 
v 348.72607421875 568.9500732421875 -1140.0653076171875 
v 348.72607421875 568.9500732421875 -1137.038330078125 
v 348.72607421875 300.95068359375 -1140.0653076171875 
v 348.72607421875 300.95068359375 -1137.038330078125 
v 348.72607421875 568.9500732421875 -1140.0653076171875 
v 348.72607421875 300.95068359375 -1140.0653076171875 
v 258.7203369140625 568.9500732421875 -1140.0653076171875 
v 258.7203369140625 300.95068359375 -1140.0653076171875 
v 258.7203369140625 568.9500732421875 -1137.038330078125 
v 258.7203369140625 300.95068359375 -1137.038330078125 
v 348.72607421875 568.9500732421875 -1137.038330078125 
v 348.72607421875 300.95068359375 -1137.038330078125 
v 347.3963623046875 568.9500732421875 -1140.549560546875 
v 437.402099609375 568.9500732421875 -1140.5496826171875 
v 347.3963623046875 568.9500732421875 -1143.57666015625 
v 437.402099609375 568.9500732421875 -1143.57666015625 
v 347.3963623046875 300.95068359375 -1143.57666015625 
v 347.3963623046875 568.9500732421875 -1143.57666015625 
v 437.402099609375 300.95068359375 -1143.57666015625 
v 437.402099609375 568.9500732421875 -1143.57666015625 
v 347.3963623046875 568.9500732421875 -1140.549560546875 
v 347.3963623046875 568.9500732421875 -1143.57666015625 
v 347.3963623046875 300.95068359375 -1140.549560546875 
v 347.3963623046875 300.95068359375 -1143.57666015625 
v 437.402099609375 300.95068359375 -1140.5496826171875 
v 437.402099609375 568.9500732421875 -1140.5496826171875 
v 347.3963623046875 300.95068359375 -1140.549560546875 
v 347.3963623046875 568.9500732421875 -1140.549560546875 
v 258.05548095703125 569.9974365234375 -1135.7669677734375 
v 438.1500549316406 569.9974365234375 -1135.7669677734375 
v 258.05548095703125 568.0336303710938 -1135.7669677734375 
v 438.1500549316406 568.0336303710938 -1135.7669677734375 
v 258.05548095703125 569.9974365234375 -1135.7669677734375 
v 258.05548095703125 569.9974365234375 -1085.760986328125 
v 438.1500549316406 569.9974365234375 -1135.7669677734375 
v 438.1500549316406 569.9974365234375 -1085.760986328125 
v 438.2331237792969 569.9974365234375 -1245.7379150390625 
v 258.1385192871094 569.9974365234375 -1245.7379150390625 
v 438.2331237792969 568.0336303710938 -1245.7379150390625 
v 258.1385192871094 568.0336303710938 -1245.7379150390625 
v 258.1385192871094 569.9974365234375 -1295.743896484375 
v 258.1385192871094 569.9974365234375 -1245.7379150390625 
v 438.2331237792969 569.9974365234375 -1295.7440185546875 
v 438.2331237792969 569.9974365234375 -1245.7379150390625 
v 348.2273864746094 568.9500732421875 -1242.2265625 
v 348.2273864746094 568.9500732421875 -1245.2535400390625 
v 348.2273864746094 300.95068359375 -1242.2265625 
v 348.2273864746094 300.95068359375 -1245.2535400390625 
v 348.2273864746094 568.9500732421875 -1242.2265625 
v 348.2273864746094 300.95068359375 -1242.2265625 
v 438.2331237792969 568.9500732421875 -1242.2265625 
v 438.2331237792969 300.95068359375 -1242.2265625 
v 438.2331237792969 568.9500732421875 -1245.253662109375 
v 438.2331237792969 300.95068359375 -1245.253662109375 
v 348.2273864746094 568.9500732421875 -1245.2535400390625 
v 348.2273864746094 300.95068359375 -1245.2535400390625 
v 259.4682312011719 568.9500732421875 -1238.7152099609375 
v 349.4740295410156 568.9500732421875 -1238.7152099609375 
v 259.4682312011719 568.9500732421875 -1241.7421875 
v 349.4740295410156 568.9500732421875 -1241.7421875 
v 349.4740295410156 300.95068359375 -1238.7152099609375 
v 349.4740295410156 568.9500732421875 -1238.7152099609375 
v 259.4682312011719 300.95068359375 -1238.7152099609375 
v 259.4682312011719 568.9500732421875 -1238.7152099609375 
vn -1.509959446366338e-7 0.002184694167226553 -0.999997615814209 
vn -1.509959446366338e-7 0.002184694167226553 -0.999997615814209 
vn -1.509959446366338e-7 0.002184694167226553 -0.999997615814209 
vn -1.509959446366338e-7 0.002184694167226553 -0.999997615814209 
vn 0.999997615814209 0.002184694167226553 -1.509958451606508e-7 
vn 0.999997615814209 0.002184694167226553 -1.509958451606508e-7 
vn 0.999997615814209 0.002184694167226553 -1.509958451606508e-7 
vn 0.999997615814209 0.002184694167226553 -1.509958451606508e-7 
vn -1.22464936721423e-16 1 4.440890245616054e-16 
vn -1.22464936721423e-16 1 4.440890245616054e-16 
vn -1.22464936721423e-16 1 4.440890245616054e-16 
vn -1.22464936721423e-16 1 4.440890245616054e-16 
vn -1.22464936721423e-16 1 4.440890245616054e-16 
vn -1.22464936721423e-16 1 4.440890245616054e-16 
vn -1.22464936721423e-16 1 4.440890245616054e-16 
vn -1.22464936721423e-16 1 4.440890245616054e-16 
vn 0.999997615814209 0.002184694167226553 -1.509958451606508e-7 
vn 0.999997615814209 0.002184694167226553 -1.509958451606508e-7 
vn 0.999997615814209 0.002184694167226553 -1.509958451606508e-7 
vn 0.999997615814209 0.002184694167226553 -1.509958451606508e-7 
vn -1.509959446366338e-7 0.002184694167226553 -0.999997615814209 
vn -1.509959446366338e-7 0.002184694167226553 -0.999997615814209 
vn -1.509959446366338e-7 0.002184694167226553 -0.999997615814209 
vn -1.509959446366338e-7 0.002184694167226553 -0.999997615814209 
vn 1.5099574568466778e-7 0.002184694167226553 0.999997615814209 
vn 1.5099574568466778e-7 0.002184694167226553 0.999997615814209 
vn 1.5099574568466778e-7 0.002184694167226553 0.999997615814209 
vn 1.5099574568466778e-7 0.002184694167226553 0.999997615814209 
vn -1.22464936721423e-16 1 4.440890245616054e-16 
vn -1.22464936721423e-16 1 4.440890245616054e-16 
vn -1.22464936721423e-16 1 4.440890245616054e-16 
vn -1.22464936721423e-16 1 4.440890245616054e-16 
vn -1.509959446366338e-7 0.002184694167226553 -0.999997615814209 
vn -1.509959446366338e-7 0.002184694167226553 -0.999997615814209 
vn -1.509959446366338e-7 0.002184694167226553 -0.999997615814209 
vn -1.509959446366338e-7 0.002184694167226553 -0.999997615814209 
vn -0.999997615814209 0.002184694167226553 1.5099564620868478e-7 
vn -0.999997615814209 0.002184694167226553 1.5099564620868478e-7 
vn -0.999997615814209 0.002184694167226553 1.5099564620868478e-7 
vn -0.999997615814209 0.002184694167226553 1.5099564620868478e-7 
vn 1.5099574568466778e-7 0.002184694167226553 0.999997615814209 
vn 1.5099574568466778e-7 0.002184694167226553 0.999997615814209 
vn 1.5099574568466778e-7 0.002184694167226553 0.999997615814209 
vn 1.5099574568466778e-7 0.002184694167226553 0.999997615814209 
vn -1.509959446366338e-7 0.002184694167226553 -0.999997615814209 
vn -1.509959446366338e-7 0.002184694167226553 -0.999997615814209 
vn -1.509959446366338e-7 0.002184694167226553 -0.999997615814209 
vn -1.509959446366338e-7 0.002184694167226553 -0.999997615814209 
vn -1.22464936721423e-16 1 4.440890245616054e-16 
vn -1.22464936721423e-16 1 4.440890245616054e-16 
vn -1.22464936721423e-16 1 4.440890245616054e-16 
vn -1.22464936721423e-16 1 4.440890245616054e-16 
vn 1.5099574568466778e-7 0.002184694167226553 0.999997615814209 
vn 1.5099574568466778e-7 0.002184694167226553 0.999997615814209 
vn 1.5099574568466778e-7 0.002184694167226553 0.999997615814209 
vn 1.5099574568466778e-7 0.002184694167226553 0.999997615814209 
vn -1.22464936721423e-16 1 4.440890245616054e-16 
vn -1.22464936721423e-16 1 4.440890245616054e-16 
vn -1.22464936721423e-16 1 4.440890245616054e-16 
vn -1.22464936721423e-16 1 4.440890245616054e-16 
vn -0.999997615814209 0.002184694167226553 1.5099564620868478e-7 
vn -0.999997615814209 0.002184694167226553 1.5099564620868478e-7 
vn -0.999997615814209 0.002184694167226553 1.5099564620868478e-7 
vn -0.999997615814209 0.002184694167226553 1.5099564620868478e-7 
vn 1.5099574568466778e-7 0.002184694167226553 0.999997615814209 
vn 1.5099574568466778e-7 0.002184694167226553 0.999997615814209 
vn 1.5099574568466778e-7 0.002184694167226553 0.999997615814209 
vn 1.5099574568466778e-7 0.002184694167226553 0.999997615814209 
vn -1.509959446366338e-7 0.002184694167226553 -0.999997615814209 
vn -1.509959446366338e-7 0.002184694167226553 -0.999997615814209 
vn -1.509959446366338e-7 0.002184694167226553 -0.999997615814209 
vn -1.509959446366338e-7 0.002184694167226553 -0.999997615814209 
vn -1.22464936721423e-16 1 4.440890245616054e-16 
vn -1.22464936721423e-16 1 4.440890245616054e-16 
vn -1.22464936721423e-16 1 4.440890245616054e-16 
vn -1.22464936721423e-16 1 4.440890245616054e-16 
vn 1.5099574568466778e-7 0.002184694167226553 0.999997615814209 
vn 1.5099574568466778e-7 0.002184694167226553 0.999997615814209 
vn 1.5099574568466778e-7 0.002184694167226553 0.999997615814209 
vn 1.5099574568466778e-7 0.002184694167226553 0.999997615814209 
vt 0.5056758522987366 0.009999999776482582 
vt 0.9691497087478638 0.009999999776482582 
vt 0.5056758522987366 0.16565684974193573 
vt 0.9691497087478638 0.16565684974193573 
vt 0.5056758522987366 0.726667582988739 
vt 0.5056758522987366 0.721522867679596 
vt 0.9691497087478638 0.726667582988739 
vt 0.9691497087478638 0.721522867679596 
vt 0.5056758522987366 0.9661948680877686 
vt 0.6612990498542786 0.9661948680877686 
vt 0.5056758522987366 0.9714592099189758 
vt 0.6612990498542786 0.9714592099189758 
vt 0.8411616086959839 0.9421464204788208 
vt 0.6854212880134583 0.9421464204788208 
vt 0.8411616086959839 0.9368820786476135 
vt 0.6854212880134583 0.9368820786476135 
vt 0.9691497087478638 0.6840742826461792 
vt 0.9691497087478638 0.6893386244773865 
vt 0.5056758522987366 0.6840742826461792 
vt 0.5056758522987366 0.6893386244773865 
vt 0.4734738767147064 0.9170211553573608 
vt 0.009999999776482582 0.9170211553573608 
vt 0.4734738767147064 0.7613643407821655 
vt 0.009999999776482582 0.7613643407821655 
vt 0.9691497087478638 0.5413389801979065 
vt 0.5056758522987366 0.5413389801979065 
vt 0.9691497087478638 0.3856821656227112 
vt 0.5056758522987366 0.3856821656227112 
vt 0.5056758522987366 0.9368820786476135 
vt 0.6612990498542786 0.9368820786476135 
vt 0.5056758522987366 0.9421464204788208 
vt 0.6612990498542786 0.9421464204788208 
vt 0.009999999776482582 0.009999999776482582 
vt 0.4734738767147064 0.009999999776482582 
vt 0.009999999776482582 0.16565684974193573 
vt 0.4734738767147064 0.16565684974193573 
vt 0.9691497087478638 0.8719154000282288 
vt 0.9691497087478638 0.8771796822547913 
vt 0.5056758522987366 0.8719154000282288 
vt 0.5056758522987366 0.8771796822547913 
vt 0.009999999776482582 0.3856821656227112 
vt 0.4734738767147064 0.3856821656227112 
vt 0.009999999776482582 0.5413389801979065 
vt 0.4734738767147064 0.5413389801979065 
vt 0.5056758522987366 0.9092442989349365 
vt 0.817039430141449 0.9092442989349365 
vt 0.5056758522987366 0.9127140045166016 
vt 0.817039430141449 0.9127140045166016 
vt 0.5056758522987366 0.6600258350372314 
vt 0.5056758522987366 0.573523223400116 
vt 0.817039430141449 0.6600258350372314 
vt 0.817039430141449 0.573523223400116 
vt 0.009999999776482582 0.9865343570709229 
vt 0.3214806914329529 0.9865343570709229 
vt 0.009999999776482582 0.9900040030479431 
vt 0.3214806914329529 0.9900040030479431 
vt 0.5056758522987366 0.847747266292572 
vt 0.5056758522987366 0.7613643407821655 
vt 0.817039430141449 0.847747266292572 
vt 0.817039430141449 0.7613643407821655 
vt 0.4734738767147064 0.9492053985595703 
vt 0.4734738767147064 0.9543501138687134 
vt 0.009999999776482582 0.9492053985595703 
vt 0.009999999776482582 0.9543501138687134 
vt 0.9691497087478638 0.3534979224205017 
vt 0.5056758522987366 0.3534979224205017 
vt 0.9691497087478638 0.197841078042984 
vt 0.5056758522987366 0.197841078042984 
vt 0.4734738767147064 0.729180097579956 
vt 0.009999999776482582 0.729180097579956 
vt 0.4734738767147064 0.573523223400116 
vt 0.009999999776482582 0.573523223400116 
vt 0.6854212880134583 0.9661948680877686 
vt 0.8411616086959839 0.9661948680877686 
vt 0.6854212880134583 0.9714592099189758 
vt 0.8411616086959839 0.9714592099189758 
vt 0.009999999776482582 0.197841078042984 
vt 0.4734738767147064 0.197841078042984 
vt 0.009999999776482582 0.3534979224205017 
vt 0.4734738767147064 0.3534979224205017 
s on 
f 1/1/1 2/2/2 3/3/3 
f 2/2/2 4/4/4 3/3/3 
f 3/3/3 4/4/4 4/4/4 
f 4/4/4 5/5/5 4/4/4 
f 4/4/4 5/5/5 5/5/5 
f 5/5/5 6/6/6 5/5/5 
f 5/5/5 6/6/6 7/7/7 
f 6/6/6 8/8/8 7/7/7 
f 7/7/7 8/8/8 8/8/8 
f 8/8/8 9/9/9 8/8/8 
f 8/8/8 9/9/9 9/9/9 
f 9/9/9 10/10/10 9/9/9 
f 9/9/9 10/10/10 11/11/11 
f 10/10/10 12/12/12 11/11/11 
f 11/11/11 12/12/12 12/12/12 
f 12/12/12 13/13/13 12/12/12 
f 12/12/12 13/13/13 13/13/13 
f 13/13/13 14/14/14 13/13/13 
f 13/13/13 14/14/14 15/15/15 
f 14/14/14 16/16/16 15/15/15 
f 15/15/15 16/16/16 16/16/16 
f 16/16/16 17/17/17 16/16/16 
f 16/16/16 17/17/17 17/17/17 
f 17/17/17 18/18/18 17/17/17 
f 17/17/17 18/18/18 19/19/19 
f 18/18/18 20/20/20 19/19/19 
f 19/19/19 20/20/20 20/20/20 
f 20/20/20 21/21/21 20/20/20 
f 20/20/20 21/21/21 21/21/21 
f 21/21/21 22/22/22 21/21/21 
f 21/21/21 22/22/22 23/23/23 
f 22/22/22 24/24/24 23/23/23 
f 23/23/23 24/24/24 24/24/24 
f 24/24/24 25/25/25 24/24/24 
f 24/24/24 25/25/25 25/25/25 
f 25/25/25 26/26/26 25/25/25 
f 25/25/25 26/26/26 27/27/27 
f 26/26/26 28/28/28 27/27/27 
f 27/27/27 28/28/28 28/28/28 
f 28/28/28 29/29/29 28/28/28 
f 28/28/28 29/29/29 29/29/29 
f 29/29/29 30/30/30 29/29/29 
f 29/29/29 30/30/30 31/31/31 
f 30/30/30 32/32/32 31/31/31 
f 31/31/31 32/32/32 32/32/32 
f 32/32/32 33/33/33 32/32/32 
f 32/32/32 33/33/33 33/33/33 
f 33/33/33 34/34/34 33/33/33 
f 33/33/33 34/34/34 35/35/35 
f 34/34/34 36/36/36 35/35/35 
f 35/35/35 36/36/36 36/36/36 
f 36/36/36 37/37/37 36/36/36 
f 36/36/36 37/37/37 37/37/37 
f 37/37/37 38/38/38 37/37/37 
f 37/37/37 38/38/38 39/39/39 
f 38/38/38 40/40/40 39/39/39 
f 39/39/39 40/40/40 40/40/40 
f 40/40/40 41/41/41 40/40/40 
f 40/40/40 41/41/41 41/41/41 
f 41/41/41 42/42/42 41/41/41 
f 41/41/41 42/42/42 43/43/43 
f 42/42/42 44/44/44 43/43/43 
f 43/43/43 44/44/44 44/44/44 
f 44/44/44 45/45/45 44/44/44 
f 44/44/44 45/45/45 45/45/45 
f 45/45/45 46/46/46 45/45/45 
f 45/45/45 46/46/46 47/47/47 
f 46/46/46 48/48/48 47/47/47 
f 47/47/47 48/48/48 48/48/48 
f 48/48/48 49/49/49 48/48/48 
f 48/48/48 49/49/49 49/49/49 
f 49/49/49 50/50/50 49/49/49 
f 49/49/49 50/50/50 51/51/51 
f 50/50/50 52/52/52 51/51/51 
f 51/51/51 52/52/52 52/52/52 
f 52/52/52 53/53/53 52/52/52 
f 52/52/52 53/53/53 53/53/53 
f 53/53/53 54/54/54 53/53/53 
f 53/53/53 54/54/54 55/55/55 
f 54/54/54 56/56/56 55/55/55 
f 55/55/55 56/56/56 56/56/56 
f 56/56/56 57/57/57 56/56/56 
f 56/56/56 57/57/57 57/57/57 
f 57/57/57 58/58/58 57/57/57 
f 57/57/57 58/58/58 59/59/59 
f 58/58/58 60/60/60 59/59/59 
f 59/59/59 60/60/60 60/60/60 
f 60/60/60 61/61/61 60/60/60 
f 60/60/60 61/61/61 61/61/61 
f 61/61/61 62/62/62 61/61/61 
f 61/61/61 62/62/62 63/63/63 
f 62/62/62 64/64/64 63/63/63 
f 63/63/63 64/64/64 64/64/64 
f 64/64/64 65/65/65 64/64/64 
f 64/64/64 65/65/65 65/65/65 
f 65/65/65 66/66/66 65/65/65 
f 65/65/65 66/66/66 67/67/67 
f 66/66/66 68/68/68 67/67/67 
f 67/67/67 68/68/68 68/68/68 
f 68/68/68 69/69/69 68/68/68 
f 68/68/68 69/69/69 69/69/69 
f 69/69/69 70/70/70 69/69/69 
f 69/69/69 70/70/70 71/71/71 
f 70/70/70 72/72/72 71/71/71 
f 71/71/71 72/72/72 72/72/72 
f 72/72/72 73/73/73 72/72/72 
f 72/72/72 73/73/73 73/73/73 
f 73/73/73 74/74/74 73/73/73 
f 73/73/73 74/74/74 75/75/75 
f 74/74/74 76/76/76 75/75/75 
f 75/75/75 76/76/76 76/76/76 
f 76/76/76 77/77/77 76/76/76 
f 76/76/76 77/77/77 77/77/77 
f 77/77/77 78/78/78 77/77/77 
f 77/77/77 78/78/78 79/79/79 
f 78/78/78 80/80/80 79/79/79 

