mtllib model_25.mtl
o model_25
v 338.1600036621094 6.999998569488525 -1030.7158203125 
v 260.0870056152344 6.999998569488525 -1030.7158203125 
v 338.1600036621094 6.999998569488525 -850.7529907226562 
v 260.0870056152344 6.999998569488525 -850.7529907226562 
v 338.1600036621094 2.288652936870833e-13 -1030.7158203125 
v 338.1600036621094 6.999998569488525 -850.7529907226562 
v 338.1600036621094 1.8890545052697993e-13 -850.7529907226562 
v 338.1600036621094 6.999998569488525 -850.7529907226562 
v 338.1600036621094 2.288652936870833e-13 -1030.7158203125 
v 338.1600036621094 6.999998569488525 -1030.7158203125 
vn 0 1 2.2204500197172533e-16 
vn 0 1 2.2204500197172533e-16 
vn 0 1 2.2204500197172533e-16 
vn 0 1 2.2204500197172533e-16 
vn 0.999997615814209 0.002184694167226553 4.851004321232411e-19 
vn 0.999997615814209 0.002184694167226553 4.851004321232411e-19 
vn 0.999997615814209 0.002184694167226553 4.851004321232411e-19 
vn 0.999997615814209 0.002184694167226553 4.851004321232411e-19 
vn 0.999997615814209 0.002184694167226553 4.851004321232411e-19 
vn 0.999997615814209 0.002184694167226553 4.851004321232411e-19 
vt 0.9899991750717163 0.009999999776482582 
vt 0.9899991750717163 0.4350823163986206 
vt 0.009999999776482582 0.009999999776482582 
vt 0.009999999776482582 0.4350823163986206 
vt 0.009999999776482582 0.5002217292785645 
vt 0.9899991750717163 0.4621438980102539 
vt 0.9899991750717163 0.5002217292785645 
vt 0.9899991750717163 0.4621438980102539 
vt 0.009999999776482582 0.5002217292785645 
vt 0.009999999776482582 0.4621438980102539 
s on 
f 1/1/1 2/2/2 3/3/3 
f 2/2/2 4/4/4 3/3/3 
f 5/5/5 6/6/6 7/7/7 
f 8/8/8 9/9/9 10/10/10 

