mtllib model_20.mtl
o model_20
v 533.0867919921875 4.03947681510905e-13 -1844.21533203125 
v 533.0867919921875 4.050807812013696e-13 -1848.21533203125 
v 619.0867919921875 4.03947681510905e-13 -1844.21533203125 
v 619.0867919921875 4.050807812013696e-13 -1848.21533203125 
v 619.0867919921875 7.999999523162842 -1848.21533203125 
v 619.0867919921875 7.999999523162842 -1844.21533203125 
v 619.0867919921875 4.050807812013696e-13 -1848.21533203125 
v 619.0867919921875 4.03947681510905e-13 -1844.21533203125 
v 533.0867919921875 255.99998474121094 -1844.21533203125 
v 533.0867919921875 248 -1844.21533203125 
v 619.0867919921875 255.99998474121094 -1844.21533203125 
v 541.0867919921875 248 -1844.21533203125 
v 611.0867919921875 248 -1844.21533203125 
v 611.0867919921875 7.999999523162842 -1848.21533203125 
v 611.0867919921875 248 -1848.21533203125 
v 619.0867919921875 7.999999523162842 -1848.21533203125 
v 619.0867919921875 248 -1848.21533203125 
v 619.0867919921875 7.999999523162842 -1844.21533203125 
v 619.0867919921875 248 -1844.21533203125 
v 611.0867919921875 7.999999523162842 -1844.21533203125 
v 611.0867919921875 248 -1844.21533203125 
v 611.0867919921875 248 -1844.21533203125 
v 611.0867919921875 248 -1848.21533203125 
v 611.0867919921875 7.999999523162842 -1844.21533203125 
v 611.0867919921875 7.999999523162842 -1848.21533203125 
v 611.0867919921875 248 -1844.21533203125 
v 619.0867919921875 248 -1844.21533203125 
v 611.0867919921875 248 -1848.21533203125 
v 619.0867919921875 248 -1848.21533203125 
v 619.0867919921875 7.999999523162842 -1844.21533203125 
v 619.0867919921875 7.999999523162842 -1848.21533203125 
v 619.0867919921875 248 -1844.21533203125 
v 619.0867919921875 248 -1848.21533203125 
v 533.0867919921875 7.999999523162842 -1848.21533203125 
v 533.0867919921875 248 -1848.21533203125 
v 541.0867919921875 7.999999523162842 -1848.21533203125 
v 541.0867919921875 248 -1848.21533203125 
v 533.0867919921875 7.999999523162842 -1844.21533203125 
v 541.0867919921875 7.999999523162842 -1844.21533203125 
v 533.0867919921875 7.999999523162842 -1848.21533203125 
v 541.0867919921875 7.999999523162842 -1848.21533203125 
v 611.0867919921875 7.999999523162842 -1844.21533203125 
v 611.0867919921875 7.999999523162842 -1848.21533203125 
v 619.0867919921875 7.999999523162842 -1844.21533203125 
v 619.0867919921875 7.999999523162842 -1848.21533203125 
v 619.0867919921875 255.99998474121094 -1848.21533203125 
v 619.0867919921875 248 -1848.21533203125 
v 533.0867919921875 255.99998474121094 -1848.21533203125 
v 611.0867919921875 248 -1848.21533203125 
v 541.0867919921875 248 -1848.21533203125 
v 541.0867919921875 7.999999523162842 -1848.21533203125 
v 541.0867919921875 7.999999523162842 -1844.21533203125 
v 533.0867919921875 7.999999523162842 -1848.21533203125 
v 533.0867919921875 7.999999523162842 -1844.21533203125 
v 541.0867919921875 7.999999523162842 -1844.21533203125 
v 541.0867919921875 7.999999523162842 -1848.21533203125 
v 541.0867919921875 248 -1844.21533203125 
v 541.0867919921875 248 -1848.21533203125 
v 533.0867919921875 248 -1844.21533203125 
v 533.0867919921875 248 -1848.21533203125 
v 541.0867919921875 248 -1844.21533203125 
v 541.0867919921875 248 -1848.21533203125 
v 611.0867919921875 248 -1844.21533203125 
v 611.0867919921875 248 -1848.21533203125 
v 619.0867919921875 248 -1844.21533203125 
v 619.0867919921875 248 -1848.21533203125 
v 533.0867919921875 4.050807812013696e-13 -1848.21533203125 
v 533.0867919921875 7.999999523162842 -1848.21533203125 
v 619.0867919921875 4.050807812013696e-13 -1848.21533203125 
v 619.0867919921875 7.999999523162842 -1848.21533203125 
v 619.0867919921875 7.999999523162842 -1848.21533203125 
v 619.0867919921875 7.999999523162842 -1844.21533203125 
v 611.0867919921875 7.999999523162842 -1848.21533203125 
v 611.0867919921875 7.999999523162842 -1844.21533203125 
v 541.0867919921875 7.999999523162842 -1844.21533203125 
v 541.0867919921875 248 -1844.21533203125 
v 533.0867919921875 7.999999523162842 -1844.21533203125 
v 533.0867919921875 248 -1844.21533203125 
v 533.0867919921875 248 -1844.21533203125 
v 541.0867919921875 248 -1844.21533203125 
v 533.0867919921875 248 -1848.21533203125 
v 541.0867919921875 248 -1848.21533203125 
v 619.0867919921875 255.99998474121094 -1848.21533203125 
v 619.0867919921875 255.99998474121094 -1844.21533203125 
v 619.0867919921875 248 -1848.21533203125 
v 619.0867919921875 248 -1844.21533203125 
v 533.0867919921875 248 -1848.21533203125 
v 533.0867919921875 248 -1844.21533203125 
v 533.0867919921875 255.99998474121094 -1848.21533203125 
v 533.0867919921875 255.99998474121094 -1844.21533203125 
v 533.0867919921875 4.050807812013696e-13 -1848.21533203125 
v 533.0867919921875 4.03947681510905e-13 -1844.21533203125 
v 533.0867919921875 7.999999523162842 -1848.21533203125 
v 533.0867919921875 7.999999523162842 -1844.21533203125 
v 533.0867919921875 7.999999523162842 -1848.21533203125 
v 533.0867919921875 7.999999523162842 -1844.21533203125 
v 533.0867919921875 248 -1848.21533203125 
v 533.0867919921875 248 -1844.21533203125 
v 533.0867919921875 255.99998474121094 -1844.21533203125 
v 619.0867919921875 255.99998474121094 -1844.21533203125 
v 533.0867919921875 255.99998474121094 -1848.21533203125 
v 619.0867919921875 255.99998474121094 -1848.21533203125 
v 533.0867919921875 7.999999523162842 -1844.21533203125 
v 533.0867919921875 4.03947681510905e-13 -1844.21533203125 
v 619.0867919921875 7.999999523162842 -1844.21533203125 
v 619.0867919921875 4.03947681510905e-13 -1844.21533203125 
v 619.0867919921875 248 -1844.21533203125 
v 533.0867919921875 248 -1848.21533203125 
v 533.0867919921875 7.999999523162842 -1844.21533203125 
v 619.0867919921875 7.999999523162842 -1844.21533203125 
v 611.0867919921875 7.999999523162842 -1844.21533203125 
v 541.0867919921875 7.999999523162842 -1844.21533203125 
v 619.0867919921875 7.999999523162842 -1848.21533203125 
v 533.0867919921875 7.999999523162842 -1848.21533203125 
v 541.0867919921875 7.999999523162842 -1848.21533203125 
v 611.0867919921875 7.999999523162842 -1848.21533203125 
vn -2.0682311115474694e-13 -1 -2.2204500197172533e-16 
vn -2.0682311115474694e-13 -1 -2.2204500197172533e-16 
vn -2.0682311115474694e-13 -1 -2.2204500197172533e-16 
vn -2.0682311115474694e-13 -1 -2.2204500197172533e-16 
vn 0.999997615814209 0.002184694167226553 4.851004321232411e-19 
vn 0.999997615814209 0.002184694167226553 4.851004321232411e-19 
vn 0.999997615814209 0.002184694167226553 4.851004321232411e-19 
vn 0.999997615814209 0.002184694167226553 4.851004321232411e-19 
vn 3.097898456858039e-13 0.002184694167226553 0.999997615814209 
vn 3.097898456858039e-13 0.002184694167226553 0.999997615814209 
vn 3.097898456858039e-13 0.002184694167226553 0.999997615814209 
vn 3.097898456858039e-13 0.002184694167226553 0.999997615814209 
vn 3.097898456858039e-13 0.002184694167226553 0.999997615814209 
vn -1.0341130485562108e-13 0.002184694167226553 -0.999997615814209 
vn -1.0341130485562108e-13 0.002184694167226553 -0.999997615814209 
vn -1.0341130485562108e-13 0.002184694167226553 -0.999997615814209 
vn -1.0341130485562108e-13 0.002184694167226553 -0.999997615814209 
vn 3.097898456858039e-13 0.002184694167226553 0.999997615814209 
vn 3.097898456858039e-13 0.002184694167226553 0.999997615814209 
vn 3.097898456858039e-13 0.002184694167226553 0.999997615814209 
vn 3.097898456858039e-13 0.002184694167226553 0.999997615814209 
vn -0.999997615814209 0.002184694167226553 2.0682309760221979e-13 
vn -0.999997615814209 0.002184694167226553 2.0682309760221979e-13 
vn -0.999997615814209 0.002184694167226553 2.0682309760221979e-13 
vn -0.999997615814209 0.002184694167226553 2.0682309760221979e-13 
vn 0 1 2.2204500197172533e-16 
vn 0 1 2.2204500197172533e-16 
vn 0 1 2.2204500197172533e-16 
vn 0 1 2.2204500197172533e-16 
vn 0.999997615814209 0.002184694167226553 4.851004321232411e-19 
vn 0.999997615814209 0.002184694167226553 4.851004321232411e-19 
vn 0.999997615814209 0.002184694167226553 4.851004321232411e-19 
vn 0.999997615814209 0.002184694167226553 4.851004321232411e-19 
vn -1.0341130485562108e-13 0.002184694167226553 -0.999997615814209 
vn -1.0341130485562108e-13 0.002184694167226553 -0.999997615814209 
vn -1.0341130485562108e-13 0.002184694167226553 -0.999997615814209 
vn -1.0341130485562108e-13 0.002184694167226553 -0.999997615814209 
vn 0 1 2.2204500197172533e-16 
vn 0 1 2.2204500197172533e-16 
vn 0 1 2.2204500197172533e-16 
vn 0 1 2.2204500197172533e-16 
vn 0 1 2.2204500197172533e-16 
vn 0 1 2.2204500197172533e-16 
vn 0 1 2.2204500197172533e-16 
vn 0 1 2.2204500197172533e-16 
vn -1.0341130485562108e-13 0.002184694167226553 -0.999997615814209 
vn -1.0341130485562108e-13 0.002184694167226553 -0.999997615814209 
vn -1.0341130485562108e-13 0.002184694167226553 -0.999997615814209 
vn -1.0341130485562108e-13 0.002184694167226553 -0.999997615814209 
vn -1.0341130485562108e-13 0.002184694167226553 -0.999997615814209 
vn -2.0682311115474694e-13 -1 -2.2204500197172533e-16 
vn -2.0682311115474694e-13 -1 -2.2204500197172533e-16 
vn -2.0682311115474694e-13 -1 -2.2204500197172533e-16 
vn -2.0682311115474694e-13 -1 -2.2204500197172533e-16 
vn 0.999997615814209 0.002184694167226553 4.851004321232411e-19 
vn 0.999997615814209 0.002184694167226553 4.851004321232411e-19 
vn 0.999997615814209 0.002184694167226553 4.851004321232411e-19 
vn 0.999997615814209 0.002184694167226553 4.851004321232411e-19 
vn -2.0682311115474694e-13 -1 -2.2204500197172533e-16 
vn -2.0682311115474694e-13 -1 -2.2204500197172533e-16 
vn -2.0682311115474694e-13 -1 -2.2204500197172533e-16 
vn -2.0682311115474694e-13 -1 -2.2204500197172533e-16 
vn -2.0682311115474694e-13 -1 -2.2204500197172533e-16 
vn -2.0682311115474694e-13 -1 -2.2204500197172533e-16 
vn -2.0682311115474694e-13 -1 -2.2204500197172533e-16 
vn -2.0682311115474694e-13 -1 -2.2204500197172533e-16 
vn -1.0341130485562108e-13 0.002184694167226553 -0.999997615814209 
vn -1.0341130485562108e-13 0.002184694167226553 -0.999997615814209 
vn -1.0341130485562108e-13 0.002184694167226553 -0.999997615814209 
vn -1.0341130485562108e-13 0.002184694167226553 -0.999997615814209 
vn -2.0682311115474694e-13 -1 -2.2204500197172533e-16 
vn -2.0682311115474694e-13 -1 -2.2204500197172533e-16 
vn -2.0682311115474694e-13 -1 -2.2204500197172533e-16 
vn -2.0682311115474694e-13 -1 -2.2204500197172533e-16 
vn 3.097898456858039e-13 0.002184694167226553 0.999997615814209 
vn 3.097898456858039e-13 0.002184694167226553 0.999997615814209 
vn 3.097898456858039e-13 0.002184694167226553 0.999997615814209 
vn 3.097898456858039e-13 0.002184694167226553 0.999997615814209 
vn 0 1 2.2204500197172533e-16 
vn 0 1 2.2204500197172533e-16 
vn 0 1 2.2204500197172533e-16 
vn 0 1 2.2204500197172533e-16 
vn 0.999997615814209 0.002184694167226553 4.851004321232411e-19 
vn 0.999997615814209 0.002184694167226553 4.851004321232411e-19 
vn 0.999997615814209 0.002184694167226553 4.851004321232411e-19 
vn 0.999997615814209 0.002184694167226553 4.851004321232411e-19 
vn -0.999997615814209 0.002184694167226553 2.0682309760221979e-13 
vn -0.999997615814209 0.002184694167226553 2.0682309760221979e-13 
vn -0.999997615814209 0.002184694167226553 2.0682309760221979e-13 
vn -0.999997615814209 0.002184694167226553 2.0682309760221979e-13 
vn -0.999997615814209 0.002184694167226553 2.0682309760221979e-13 
vn -0.999997615814209 0.002184694167226553 2.0682309760221979e-13 
vn -0.999997615814209 0.002184694167226553 2.0682309760221979e-13 
vn -0.999997615814209 0.002184694167226553 2.0682309760221979e-13 
vn -0.999997615814209 0.002184694167226553 2.0682309760221979e-13 
vn -0.999997615814209 0.002184694167226553 2.0682309760221979e-13 
vn -0.999997615814209 0.002184694167226553 2.0682309760221979e-13 
vn -0.999997615814209 0.002184694167226553 2.0682309760221979e-13 
vn 0 1 2.2204500197172533e-16 
vn 0 1 2.2204500197172533e-16 
vn 0 1 2.2204500197172533e-16 
vn 0 1 2.2204500197172533e-16 
vn 3.097898456858039e-13 0.002184694167226553 0.999997615814209 
vn 3.097898456858039e-13 0.002184694167226553 0.999997615814209 
vn 3.097898456858039e-13 0.002184694167226553 0.999997615814209 
vn 3.097898456858039e-13 0.002184694167226553 0.999997615814209 
vn 3.097898456858039e-13 0.002184694167226553 0.999997615814209 
vn -1.0341130485562108e-13 0.002184694167226553 -0.999997615814209 
vn 0.999997615814209 0.002184694167226553 4.851004321232411e-19 
vn 0.999997615814209 0.002184694167226553 4.851004321232411e-19 
vn 0.999997615814209 0.002184694167226553 4.851004321232411e-19 
vn 0.999997615814209 0.002184694167226553 4.851004321232411e-19 
vn 0.999997615814209 0.002184694167226553 4.851004321232411e-19 
vn 0.999997615814209 0.002184694167226553 4.851004321232411e-19 
vn 0.999997615814209 0.002184694167226553 4.851004321232411e-19 
vn 0.999997615814209 0.002184694167226553 4.851004321232411e-19 
vt 0.7277443408966064 0.46703770756721497 
vt 0.7277443408966064 0.4833222031593323 
vt 0.37658920884132385 0.46703770756721497 
vt 0.37658920884132385 0.4833222031593323 
vt 0.8240577578544617 0.37075909972190857 
vt 0.8240577578544617 0.3871150314807892 
vt 0.7913949489593506 0.37075909972190857 
vt 0.7913949489593506 0.3871150314807892 
vt 0.7277443408966064 0.37075909972190857 
vt 0.7277443408966064 0.4034709632396698 
vt 0.37658920884132385 0.37075909972190857 
vt 0.6950815320014954 0.4034709632396698 
vt 0.40925201773643494 0.4034709632396698 
vt 0.009999999776482582 0.11656356602907181 
vt 0.9900040030479431 0.11656356602907181 
vt 0.009999999776482582 0.14920401573181152 
vt 0.9900040030479431 0.14920401573181152 
vt 0.009999999776482582 0.06328178197145462 
vt 0.9900040030479431 0.06328178197145462 
vt 0.009999999776482582 0.09592223167419434 
vt 0.9900040030479431 0.09592223167419434 
vt 0.9900040030479431 0.22305570542812347 
vt 0.9900040030479431 0.2394116371870041 
vt 0.009999999776482582 0.22305570542812347 
vt 0.009999999776482582 0.2394116371870041 
vt 0.042662810534238815 0.5950282216072083 
vt 0.009999999776482582 0.5950282216072083 
vt 0.042662810534238815 0.5786722898483276 
vt 0.009999999776482582 0.5786722898483276 
vt 0.009999999776482582 0.3501891791820526 
vt 0.009999999776482582 0.333833247423172 
vt 0.9900040030479431 0.3501891791820526 
vt 0.9900040030479431 0.333833247423172 
vt 0.009999999776482582 0.1697739213705063 
vt 0.9900040030479431 0.1697739213705063 
vt 0.009999999776482582 0.2024857997894287 
vt 0.9900040030479431 0.2024857997894287 
vt 0.3611551523208618 0.5632448792457581 
vt 0.32849231362342834 0.5632448792457581 
vt 0.3611551523208618 0.5468889474868774 
vt 0.32849231362342834 0.5468889474868774 
vt 0.042662810534238815 0.5632448792457581 
vt 0.042662810534238815 0.5468889474868774 
vt 0.009999999776482582 0.5632448792457581 
vt 0.009999999776482582 0.5468889474868774 
vt 0.3611551523208618 0.46703770756721497 
vt 0.3611551523208618 0.4996781349182129 
vt 0.009999999776482582 0.46703770756721497 
vt 0.32849231362342834 0.4996781349182129 
vt 0.042662810534238815 0.4996781349182129 
vt 0.7431784272193909 0.3871150314807892 
vt 0.7431784272193909 0.37075909972190857 
vt 0.775841236114502 0.3871150314807892 
vt 0.775841236114502 0.37075909972190857 
vt 0.009999999776482582 0.27633747458457947 
vt 0.009999999776482582 0.25998154282569885 
vt 0.9900040030479431 0.27633747458457947 
vt 0.9900040030479431 0.25998154282569885 
vt 0.3611551523208618 0.5151056051254272 
vt 0.3611551523208618 0.5314615368843079 
vt 0.32849231362342834 0.5151056051254272 
vt 0.32849231362342834 0.5314615368843079 
vt 0.042662810534238815 0.5151056051254272 
vt 0.042662810534238815 0.5314615368843079 
vt 0.009999999776482582 0.5151056051254272 
vt 0.009999999776482582 0.5314615368843079 
vt 0.009999999776482582 0.4034709632396698 
vt 0.009999999776482582 0.37075909972190857 
vt 0.3611551523208618 0.4034709632396698 
vt 0.3611551523208618 0.37075909972190857 
vt 0.37658920884132385 0.5314615368843079 
vt 0.37658920884132385 0.5151056051254272 
vt 0.40925201773643494 0.5314615368843079 
vt 0.40925201773643494 0.5151056051254272 
vt 0.009999999776482582 0.009999999776482582 
vt 0.9900040030479431 0.009999999776482582 
vt 0.009999999776482582 0.04264044761657715 
vt 0.9900040030479431 0.04264044761657715 
vt 0.775841236114502 0.4352543354034424 
vt 0.7431784272193909 0.4352543354034424 
vt 0.775841236114502 0.41889840364456177 
vt 0.7431784272193909 0.41889840364456177 
vt 0.8292024731636047 0.46703770756721497 
vt 0.8292024731636047 0.4833222031593323 
vt 0.7965396642684937 0.46703770756721497 
vt 0.7965396642684937 0.4833222031593323 
vt 0.7913949489593506 0.4352543354034424 
vt 0.7913949489593506 0.41889840364456177 
vt 0.8240577578544617 0.4352543354034424 
vt 0.8240577578544617 0.41889840364456177 
vt 0.7431784272193909 0.4833222031593323 
vt 0.7431784272193909 0.46703770756721497 
vt 0.775841236114502 0.4833222031593323 
vt 0.775841236114502 0.46703770756721497 
vt 0.009999999776482582 0.31326332688331604 
vt 0.009999999776482582 0.2969073951244354 
vt 0.9900040030479431 0.31326332688331604 
vt 0.9900040030479431 0.2969073951244354 
vt 0.7277443408966064 0.4352543354034424 
vt 0.37658920884132385 0.4352543354034424 
vt 0.7277443408966064 0.41889840364456177 
vt 0.37658920884132385 0.41889840364456177 
vt 0.3611551523208618 0.41889840364456177 
vt 0.3611551523208618 0.4515388309955597 
vt 0.009999999776482582 0.41889840364456177 
vt 0.009999999776482582 0.4515388309955597 
vt 0.37658920884132385 0.4034709632396698 
vt 0.009999999776482582 0.4996781349182129 
vt 0.37658920884132385 0.49882107973098755 
vt 0.37658920884132385 0.49882107973098755 
vt 0.37658920884132385 0.49882107973098755 
vt 0.37658920884132385 0.49882107973098755 
vt 0.37658920884132385 0.45068177580833435 
vt 0.37658920884132385 0.45068177580833435 
vt 0.37658920884132385 0.45068177580833435 
vt 0.37658920884132385 0.45068177580833435 
s on 
f 1/1/1 2/2/2 3/3/3 
f 2/2/2 4/4/4 3/3/3 
f 3/3/3 4/4/4 4/4/4 
f 4/4/4 5/5/5 4/4/4 
f 4/4/4 5/5/5 5/5/5 
f 5/5/5 6/6/6 5/5/5 
f 5/5/5 6/6/6 7/7/7 
f 6/6/6 8/8/8 7/7/7 
f 7/7/7 8/8/8 8/8/8 
f 8/8/8 9/9/9 8/8/8 
f 8/8/8 9/9/9 9/9/9 
f 9/9/9 10/10/10 9/9/9 
f 9/9/9 10/10/10 11/11/11 
f 10/10/10 12/12/12 11/11/11 
f 11/11/11 12/12/12 13/13/13 
f 12/12/12 13/13/13 13/13/13 
f 13/13/13 13/13/13 14/14/14 
f 13/13/13 14/14/14 14/14/14 
f 14/14/14 14/14/14 14/14/14 
f 14/14/14 15/15/15 14/14/14 
f 14/14/14 15/15/15 16/16/16 
f 15/15/15 17/17/17 16/16/16 
f 16/16/16 17/17/17 17/17/17 
f 17/17/17 18/18/18 17/17/17 
f 17/17/17 18/18/18 18/18/18 
f 18/18/18 19/19/19 18/18/18 
f 18/18/18 19/19/19 20/20/20 
f 19/19/19 21/21/21 20/20/20 
f 20/20/20 21/21/21 21/21/21 
f 21/21/21 22/22/22 21/21/21 
f 21/21/21 22/22/22 22/22/22 
f 22/22/22 23/23/23 22/22/22 
f 22/22/22 23/23/23 24/24/24 
f 23/23/23 25/25/25 24/24/24 
f 24/24/24 25/25/25 25/25/25 
f 25/25/25 26/26/26 25/25/25 
f 25/25/25 26/26/26 26/26/26 
f 26/26/26 27/27/27 26/26/26 
f 26/26/26 27/27/27 28/28/28 
f 27/27/27 29/29/29 28/28/28 
f 28/28/28 29/29/29 29/29/29 
f 29/29/29 30/30/30 29/29/29 
f 29/29/29 30/30/30 30/30/30 
f 30/30/30 31/31/31 30/30/30 
f 30/30/30 31/31/31 32/32/32 
f 31/31/31 33/33/33 32/32/32 
f 32/32/32 33/33/33 33/33/33 
f 33/33/33 34/34/34 33/33/33 
f 33/33/33 34/34/34 34/34/34 
f 34/34/34 35/35/35 34/34/34 
f 34/34/34 35/35/35 36/36/36 
f 35/35/35 37/37/37 36/36/36 
f 36/36/36 37/37/37 37/37/37 
f 37/37/37 38/38/38 37/37/37 
f 37/37/37 38/38/38 38/38/38 
f 38/38/38 39/39/39 38/38/38 
f 38/38/38 39/39/39 40/40/40 
f 39/39/39 41/41/41 40/40/40 
f 40/40/40 41/41/41 41/41/41 
f 41/41/41 39/39/39 41/41/41 
f 41/41/41 39/39/39 39/39/39 
f 39/39/39 42/42/42 39/39/39 
f 39/39/39 42/42/42 41/41/41 
f 42/42/42 43/43/43 41/41/41 
f 41/41/41 43/43/43 43/43/43 
f 43/43/43 42/42/42 43/43/43 
f 43/43/43 42/42/42 42/42/42 
f 42/42/42 44/44/44 42/42/42 
f 42/42/42 44/44/44 43/43/43 
f 44/44/44 45/45/45 43/43/43 
f 43/43/43 45/45/45 45/45/45 
f 45/45/45 46/46/46 45/45/45 
f 45/45/45 46/46/46 46/46/46 
f 46/46/46 47/47/47 46/46/46 
f 46/46/46 47/47/47 48/48/48 
f 47/47/47 49/49/49 48/48/48 
f 48/48/48 49/49/49 50/50/50 
f 49/49/49 50/50/50 50/50/50 
f 50/50/50 50/50/50 51/51/51 
f 50/50/50 51/51/51 51/51/51 
f 51/51/51 51/51/51 51/51/51 
f 51/51/51 52/52/52 51/51/51 
f 51/51/51 52/52/52 53/53/53 
f 52/52/52 54/54/54 53/53/53 
f 53/53/53 54/54/54 54/54/54 
f 54/54/54 55/55/55 54/54/54 
f 54/54/54 55/55/55 55/55/55 
f 55/55/55 56/56/56 55/55/55 
f 55/55/55 56/56/56 57/57/57 
f 56/56/56 58/58/58 57/57/57 
f 57/57/57 58/58/58 58/58/58 
f 58/58/58 59/59/59 58/58/58 
f 58/58/58 59/59/59 59/59/59 
f 59/59/59 60/60/60 59/59/59 
f 59/59/59 60/60/60 61/61/61 
f 60/60/60 62/62/62 61/61/61 
f 61/61/61 62/62/62 63/63/63 
f 62/62/62 64/64/64 63/63/63 
f 63/63/63 64/64/64 65/65/65 
f 64/64/64 66/66/66 65/65/65 
f 65/65/65 66/66/66 66/66/66 
f 66/66/66 67/67/67 66/66/66 
f 66/66/66 67/67/67 67/67/67 
f 67/67/67 68/68/68 67/67/67 
f 67/67/67 68/68/68 69/69/69 
f 68/68/68 70/70/70 69/69/69 
f 69/69/69 70/70/70 70/70/70 
f 70/70/70 71/71/71 70/70/70 
f 70/70/70 71/71/71 71/71/71 
f 71/71/71 72/72/72 71/71/71 
f 71/71/71 72/72/72 73/73/73 
f 72/72/72 74/74/74 73/73/73 
f 73/73/73 74/74/74 74/74/74 
f 74/74/74 75/75/75 74/74/74 
f 74/74/74 75/75/75 75/75/75 
f 75/75/75 76/76/76 75/75/75 
f 75/75/75 76/76/76 77/77/77 
f 76/76/76 78/78/78 77/77/77 
f 77/77/77 78/78/78 78/78/78 
f 78/78/78 79/79/79 78/78/78 
f 78/78/78 79/79/79 79/79/79 
f 79/79/79 80/80/80 79/79/79 
f 79/79/79 80/80/80 81/81/81 
f 80/80/80 82/82/82 81/81/81 
f 81/81/81 82/82/82 82/82/82 
f 82/82/82 83/83/83 82/82/82 
f 82/82/82 83/83/83 83/83/83 
f 83/83/83 84/84/84 83/83/83 
f 83/83/83 84/84/84 85/85/85 
f 84/84/84 86/86/86 85/85/85 
f 85/85/85 86/86/86 86/86/86 
f 86/86/86 87/87/87 86/86/86 
f 86/86/86 87/87/87 87/87/87 
f 87/87/87 88/88/88 87/87/87 
f 87/87/87 88/88/88 89/89/89 
f 88/88/88 90/90/90 89/89/89 
f 89/89/89 90/90/90 90/90/90 
f 90/90/90 91/91/91 90/90/90 
f 90/90/90 91/91/91 91/91/91 
f 91/91/91 92/92/92 91/91/91 
f 91/91/91 92/92/92 93/93/93 
f 92/92/92 94/94/94 93/93/93 
f 93/93/93 94/94/94 94/94/94 
f 94/94/94 95/95/95 94/94/94 
f 94/94/94 95/95/95 95/95/95 
f 95/95/95 96/96/96 95/95/95 
f 95/95/95 96/96/96 97/97/97 
f 96/96/96 98/98/98 97/97/97 
f 97/97/97 98/98/98 98/98/98 
f 98/98/98 99/99/99 98/98/98 
f 98/98/98 99/99/99 99/99/99 
f 99/99/99 100/100/100 99/99/99 
f 99/99/99 100/100/100 101/101/101 
f 100/100/100 102/102/102 101/101/101 
f 101/101/101 102/102/102 102/102/102 
f 102/102/102 103/103/103 102/102/102 
f 102/102/102 103/103/103 103/103/103 
f 103/103/103 104/104/104 103/103/103 
f 103/103/103 104/104/104 105/105/105 
f 104/104/104 106/106/106 105/105/105 
f 11/11/11 13/13/13 107/107/107 
f 48/48/48 50/50/50 108/108/108 

