mtllib model_75.mtl
o model_75
v 258.08685302734375 -30 -1818.7154541015625 
v 258.086669921875 270 -830.7527465820312 
v 258.086669921875 -30 -830.7527465820312 
v 258.086669921875 270 -830.7527465820312 
v 258.08685302734375 -30 -1818.7154541015625 
v 258.08685302734375 270 -1818.7154541015625 
vn 0.999997615814209 0.002184694167226553 4.851004321232411e-19 
vn 0.999997615814209 0.002184694167226553 4.851004321232411e-19 
vn 0.999997615814209 0.002184694167226553 4.851004321232411e-19 
vn 0.999997615814209 0.002184694167226553 4.851004321232411e-19 
vn 0.999997615814209 0.002184694167226553 4.851004321232411e-19 
vn 0.999997615814209 0.002184694167226553 4.851004321232411e-19 
vt 0.009999999776482582 0.3075825870037079 
vt 0.9900006055831909 0.009999999776482582 
vt 0.9900006055831909 0.3075825870037079 
vt 0.9900006055831909 0.009999999776482582 
vt 0.009999999776482582 0.3075825870037079 
vt 0.009999999776482582 0.009999999776482582 
s on 
f 1/1/1 2/2/2 3/3/3 
f 4/4/4 5/5/5 6/6/6 

