mtllib model_74.mtl
o model_74
v 438.1590270996094 300 -1075.760009765625 
v 438.1590270996094 569.9994506835938 -1075.760009765625 
v 258.0870056152344 300 -1075.760009765625 
v 258.0870056152344 569.9994506835938 -1075.760009765625 
vn 3.097898456858039e-13 0.002184694167226553 0.999997615814209 
vn 3.097898456858039e-13 0.002184694167226553 0.999997615814209 
vn 3.097898456858039e-13 0.002184694167226553 0.999997615814209 
vn 3.097898456858039e-13 0.002184694167226553 0.999997615814209 
vt -0.001827909960411489 0.004930510185658932 
vt 0.9971718788146973 0.004930510185658932 
vt -0.001827909960411489 0.6711992025375366 
vt 0.9971718788146973 0.6711992025375366 
s on 
f 1/1/1 2/2/2 3/3/3 
f 2/2/2 4/4/4 3/3/3 

