mtllib model_40.mtl
o model_40
v 541.6602783203125 299.6899108886719 -1399.2899169921875 
v 541.6602783203125 300.689697265625 -1399.2899169921875 
v 301.6589660644531 299.6899108886719 -1399.2899169921875 
v 301.6589660644531 300.689697265625 -1399.2899169921875 
v 541.6602783203125 300.689697265625 -1569.2900390625 
v 301.6589660644531 300.689697265625 -1569.2900390625 
v 541.6602783203125 300.689697265625 -1399.2899169921875 
v 301.6589660644531 300.689697265625 -1399.2899169921875 
v 541.6602783203125 299.6899108886719 -1399.2899169921875 
v 301.6589660644531 299.6899108886719 -1399.2899169921875 
v 541.6602783203125 299.6899108886719 -1569.2900390625 
v 301.6589660644531 299.6899108886719 -1569.2900390625 
v 541.6602783203125 300.689697265625 -1569.2900390625 
v 541.6602783203125 300.689697265625 -1399.2899169921875 
v 541.6602783203125 299.6899108886719 -1569.2900390625 
v 541.6602783203125 299.6899108886719 -1399.2899169921875 
v 301.6589660644531 299.6899108886719 -1569.2900390625 
v 301.6589660644531 300.689697265625 -1569.2900390625 
v 541.6602783203125 299.6899108886719 -1569.2900390625 
v 541.6602783203125 300.689697265625 -1569.2900390625 
v 301.6589660644531 300.689697265625 -1399.2899169921875 
v 301.6589660644531 300.689697265625 -1569.2900390625 
v 301.6589660644531 299.6899108886719 -1399.2899169921875 
v 301.6589660644531 299.6899108886719 -1569.2900390625 
vn 3.097898456858039e-13 0.002184694167226553 0.999997615814209 
vn 3.097898456858039e-13 0.002184694167226553 0.999997615814209 
vn 3.097898456858039e-13 0.002184694167226553 0.999997615814209 
vn 3.097898456858039e-13 0.002184694167226553 0.999997615814209 
vn 0 1 2.2204500197172533e-16 
vn 0 1 2.2204500197172533e-16 
vn 0 1 2.2204500197172533e-16 
vn 0 1 2.2204500197172533e-16 
vn -2.0682311115474694e-13 -1 -2.2204500197172533e-16 
vn -2.0682311115474694e-13 -1 -2.2204500197172533e-16 
vn -2.0682311115474694e-13 -1 -2.2204500197172533e-16 
vn -2.0682311115474694e-13 -1 -2.2204500197172533e-16 
vn 0.999997615814209 0.002184694167226553 4.851004321232411e-19 
vn 0.999997615814209 0.002184694167226553 4.851004321232411e-19 
vn 0.999997615814209 0.002184694167226553 4.851004321232411e-19 
vn 0.999997615814209 0.002184694167226553 4.851004321232411e-19 
vn -1.0341130485562108e-13 0.002184694167226553 -0.999997615814209 
vn -1.0341130485562108e-13 0.002184694167226553 -0.999997615814209 
vn -1.0341130485562108e-13 0.002184694167226553 -0.999997615814209 
vn -1.0341130485562108e-13 0.002184694167226553 -0.999997615814209 
vn -0.999997615814209 0.002184694167226553 2.0682309760221979e-13 
vn -0.999997615814209 0.002184694167226553 2.0682309760221979e-13 
vn -0.999997615814209 0.002184694167226553 2.0682309760221979e-13 
vn -0.999997615814209 0.002184694167226553 2.0682309760221979e-13 
vt 0.009999999776482582 0.9170211553573608 
vt 0.009999999776482582 0.9145086407661438 
vt 0.6176525950431824 0.9170211553573608 
vt 0.6176525950431824 0.9145086407661438 
vt 0.009999999776482582 0.009999999776482582 
vt 0.6176525950431824 0.009999999776482582 
vt 0.009999999776482582 0.4404790997505188 
vt 0.6176525950431824 0.4404790997505188 
vt 0.009999999776482582 0.4622543156147003 
vt 0.6176525950431824 0.4622543156147003 
vt 0.009999999776482582 0.8926137685775757 
vt 0.6176525950431824 0.8926137685775757 
vt 0.009999999776482582 0.9874914884567261 
vt 0.4404236972332001 0.9874914884567261 
vt 0.009999999776482582 0.9900040030479431 
vt 0.4404236972332001 0.9900040030479431 
vt 0.009999999776482582 0.9413089156150818 
vt 0.009999999776482582 0.9387964010238647 
vt 0.6176525950431824 0.9413089156150818 
vt 0.6176525950431824 0.9387964010238647 
vt 0.009999999776482582 0.9630841016769409 
vt 0.4404236972332001 0.9630841016769409 
vt 0.009999999776482582 0.9657162427902222 
vt 0.4404236972332001 0.9657162427902222 
s on 
f 1/1/1 2/2/2 3/3/3 
f 2/2/2 4/4/4 3/3/3 
f 3/3/3 4/4/4 4/4/4 
f 4/4/4 5/5/5 4/4/4 
f 4/4/4 5/5/5 5/5/5 
f 5/5/5 6/6/6 5/5/5 
f 5/5/5 6/6/6 7/7/7 
f 6/6/6 8/8/8 7/7/7 
f 7/7/7 8/8/8 8/8/8 
f 8/8/8 9/9/9 8/8/8 
f 8/8/8 9/9/9 9/9/9 
f 9/9/9 10/10/10 9/9/9 
f 9/9/9 10/10/10 11/11/11 
f 10/10/10 12/12/12 11/11/11 
f 11/11/11 12/12/12 12/12/12 
f 12/12/12 13/13/13 12/12/12 
f 12/12/12 13/13/13 13/13/13 
f 13/13/13 14/14/14 13/13/13 
f 13/13/13 14/14/14 15/15/15 
f 14/14/14 16/16/16 15/15/15 
f 15/15/15 16/16/16 16/16/16 
f 16/16/16 17/17/17 16/16/16 
f 16/16/16 17/17/17 17/17/17 
f 17/17/17 18/18/18 17/17/17 
f 17/17/17 18/18/18 19/19/19 
f 18/18/18 20/20/20 19/19/19 
f 19/19/19 20/20/20 20/20/20 
f 20/20/20 21/21/21 20/20/20 
f 20/20/20 21/21/21 21/21/21 
f 21/21/21 22/22/22 21/21/21 
f 21/21/21 22/22/22 23/23/23 
f 22/22/22 24/24/24 23/23/23 

