mtllib model_39.mtl
o model_39
v 606.466064453125 299.7579040527344 -643.05224609375 
v 606.466064453125 300.7576904296875 -643.05224609375 
v 606.466064453125 299.7579040527344 -403.05096435546875 
v 606.466064453125 300.7576904296875 -403.05096435546875 
v 436.4660339355469 300.7576904296875 -643.05224609375 
v 436.46600341796875 300.7576904296875 -403.0509948730469 
v 606.466064453125 300.7576904296875 -643.05224609375 
v 606.466064453125 300.7576904296875 -403.05096435546875 
v 436.4660339355469 300.7576904296875 -643.05224609375 
v 606.466064453125 300.7576904296875 -643.05224609375 
v 436.4660339355469 299.7579040527344 -643.05224609375 
v 606.466064453125 299.7579040527344 -643.05224609375 
v 436.46600341796875 299.7579040527344 -403.0509948730469 
v 436.46600341796875 300.7576904296875 -403.0509948730469 
v 436.4660339355469 299.7579040527344 -643.05224609375 
v 436.4660339355469 300.7576904296875 -643.05224609375 
v 606.466064453125 300.7576904296875 -403.05096435546875 
v 436.46600341796875 300.7576904296875 -403.0509948730469 
v 606.466064453125 299.7579040527344 -403.05096435546875 
v 436.46600341796875 299.7579040527344 -403.0509948730469 
vn 0.999997615814209 0.002184694167226553 4.3710986830092224e-8 
vn 0.999997615814209 0.002184694167226553 4.3710986830092224e-8 
vn 0.999997615814209 0.002184694167226553 4.3710986830092224e-8 
vn 0.999997615814209 0.002184694167226553 4.3710986830092224e-8 
vn 2.4264722467265094e-24 1 -5.551119755337213e-17 
vn 2.4264722467265094e-24 1 -5.551119755337213e-17 
vn 2.4264722467265094e-24 1 -5.551119755337213e-17 
vn 2.4264722467265094e-24 1 -5.551119755337213e-17 
vn 4.371129591618228e-8 0.002184694167226553 -0.999997615814209 
vn 4.371129591618228e-8 0.002184694167226553 -0.999997615814209 
vn 4.371129591618228e-8 0.002184694167226553 -0.999997615814209 
vn 4.371129591618228e-8 0.002184694167226553 -0.999997615814209 
vn -0.999997615814209 0.002184694167226553 -4.3711192887485595e-8 
vn -0.999997615814209 0.002184694167226553 -4.3711192887485595e-8 
vn -0.999997615814209 0.002184694167226553 -4.3711192887485595e-8 
vn -0.999997615814209 0.002184694167226553 -4.3711192887485595e-8 
vn -4.371108985878891e-8 0.002184694167226553 0.999997615814209 
vn -4.371108985878891e-8 0.002184694167226553 0.999997615814209 
vn -4.371108985878891e-8 0.002184694167226553 0.999997615814209 
vn -4.371108985878891e-8 0.002184694167226553 0.999997615814209 
vt 0.009999999776482582 0.7622849345207214 
vt 0.009999999776482582 0.7582281231880188 
vt 0.9900040030479431 0.7622849345207214 
vt 0.9900040030479431 0.7582281231880188 
vt 0.009999999776482582 0.009999999776482582 
vt 0.9900040030479431 0.009999999776482582 
vt 0.009999999776482582 0.704203724861145 
vt 0.9900040030479431 0.704203724861145 
vt 0.009999999776482582 0.8164082765579224 
vt 0.7041744589805603 0.8164082765579224 
vt 0.009999999776482582 0.8204650282859802 
vt 0.7041744589805603 0.8204650282859802 
vt 0.009999999776482582 0.7331948280334473 
vt 0.009999999776482582 0.7291380763053894 
vt 0.9900040030479431 0.7331948280334473 
vt 0.9900040030479431 0.7291380763053894 
vt 0.009999999776482582 0.787318229675293 
vt 0.7041744589805603 0.787318229675293 
vt 0.009999999776482582 0.7913749814033508 
vt 0.7041744589805603 0.7913749814033508 
s on 
f 1/1/1 2/2/2 3/3/3 
f 2/2/2 4/4/4 3/3/3 
f 3/3/3 4/4/4 4/4/4 
f 4/4/4 5/5/5 4/4/4 
f 4/4/4 5/5/5 5/5/5 
f 5/5/5 6/6/6 5/5/5 
f 5/5/5 6/6/6 7/7/7 
f 6/6/6 8/8/8 7/7/7 
f 7/7/7 8/8/8 8/8/8 
f 8/8/8 9/9/9 8/8/8 
f 8/8/8 9/9/9 9/9/9 
f 9/9/9 10/10/10 9/9/9 
f 9/9/9 10/10/10 11/11/11 
f 10/10/10 12/12/12 11/11/11 
f 11/11/11 12/12/12 12/12/12 
f 12/12/12 13/13/13 12/12/12 
f 12/12/12 13/13/13 13/13/13 
f 13/13/13 14/14/14 13/13/13 
f 13/13/13 14/14/14 15/15/15 
f 14/14/14 16/16/16 15/15/15 
f 15/15/15 16/16/16 16/16/16 
f 16/16/16 17/17/17 16/16/16 
f 16/16/16 17/17/17 17/17/17 
f 17/17/17 18/18/18 17/17/17 
f 17/17/17 18/18/18 19/19/19 
f 18/18/18 20/20/20 19/19/19 

